<?xml version="1.0" encoding="utf-8"?>
<!-- Generator: Adobe Illustrator 21.0.2, SVG Export Plug-In . SVG Version: 6.00 Build 0)  -->
<svg version="1.1" id="Calque_1" xmlns="http://www.w3.org/2000/svg" xmlns:xlink="http://www.w3.org/1999/xlink" x="0px" y="0px"
	 viewBox="0 0 330 25" style="enable-background:new 0 0 330 25;" xml:space="preserve">
<style type="text/css">
	.st0{fill:#A56799;}
</style>
<g transform="translate(0.000000,38.000000) scale(0.100000,-0.100000)">
	<path class="st0" d="M652.9,172.2c57.2,3.9,145.9,7.9,199.2,8.9c52.3,0,96.6,4.9,98.6,9.9c4.9,12.8,1495.9,50.3,2026.4,50.3
		c146.9,0,249.5,3.9,249.5,8.9c0,4.9,9.9,10.8,21.7,12.8c12.8,2-206.1,6.9-485.2,10.8c-731.7,9.9-1502.8,28.6-1508.7,36.5
		c-3,3.9-109.5,9.9-236.7,13.8S719.9,334.9,640,340.9c-123.3,7.9-152.8,6.9-190.3-5.9c-24.7-7.9-50.3-14.8-58.2-14.8
		c-6.9,0-14.8-3.9-16.8-8.9c-3-8.9-224.8-40.4-287-40.4c-23.7,0-36.5-4.9-36.5-13.8c0-9.9,24.7-14.8,90.7-19.7
		c103.5-7.9,266.2-33.5,274.1-43.4c8.9-12.8,74.9-31.6,104.5-29.6C536.5,165.3,595.7,169.2,652.9,172.2z"/>
</g>
</svg>
