<?xml version="1.0" encoding="utf-8"?>
<!-- Generator: Adobe Illustrator 21.0.2, SVG Export Plug-In . SVG Version: 6.00 Build 0)  -->
<svg version="1.1" id="Calque_1" xmlns="http://www.w3.org/2000/svg" xmlns:xlink="http://www.w3.org/1999/xlink" x="0px" y="0px"
	 viewBox="0 0 364 37" style="enable-background:new 0 0 364 37;" xml:space="preserve">
<style type="text/css">
	.st0{fill:#3C1218;}
</style>
<g transform="translate(0.000000,37.000000) scale(0.100000,-0.100000)">
	<path class="st0" d="M176,233c-48-8-76-32-76-64v-29l283,1c155,1,343,4,417,8c207,10,2114-7,2118-19c5-13,212-14,212,0
		c0,6,55,10,143,11c213,2,281,10,285,33c2,10,0,22-5,26c-16,15-993,33-1213,22c-190-9-1580-1-1985,11C273,236,192,236,176,233z"/>
</g>
</svg>
