<?xml version="1.0" encoding="utf-8"?>
<!-- Generator: Adobe Illustrator 21.0.2, SVG Export Plug-In . SVG Version: 6.00 Build 0)  -->
<svg version="1.1" id="Calque_1" xmlns="http://www.w3.org/2000/svg" xmlns:xlink="http://www.w3.org/1999/xlink" x="0px" y="0px"
	 viewBox="0 0 330 25" style="enable-background:new 0 0 330 25;" xml:space="preserve">
<style type="text/css">
	.st0{fill:#D8852E;}
</style>
<g transform="translate(0.000000,38.000000) scale(0.100000,-0.100000)">
	<path class="st0" d="M2661.3,339c-58-4-148-8-202-9c-53,0-98-5-100-10c-5-13-1517-51-2055-51c-149,0-253-4-253-9c0-5-10-11-22-13
		c-13-2,209-7,492-11c742-10,1524-29,1530-37c3-4,111-10,240-14s302-11,383-17c125-8,155-7,193,6c25,8,51,15,59,15c7,0,15,4,17,9
		c3,9,228,41,291,41c24,0,37,5,37,14c0,10-25,15-92,20c-105,8-270,34-278,44c-9,13-76,32-106,30C2779.3,346,2719.3,342,2661.3,339z"
		/>
</g>
</svg>
