<?xml version="1.0" encoding="utf-8"?>
<!-- Generator: Adobe Illustrator 21.0.2, SVG Export Plug-In . SVG Version: 6.00 Build 0)  -->
<svg version="1.1" id="Calque_1" xmlns="http://www.w3.org/2000/svg" xmlns:xlink="http://www.w3.org/1999/xlink" x="0px" y="0px"
	 viewBox="0 0 330 25" style="enable-background:new 0 0 330 25;" xml:space="preserve">
<style type="text/css">
	.st0{fill:#D8852E;}
</style>
<g transform="translate(0.000000,38.000000) scale(0.100000,-0.100000)">
	<path class="st0" d="M652.9,339c57.2-4,145.9-8,199.2-9c52.3,0,96.6-5,98.6-10c4.9-13,1495.9-51,2026.4-51c146.9,0,249.5-4,249.5-9
		s9.9-11,21.7-13c12.8-2-206.1-7-485.2-11c-731.6-10-1502.7-29-1508.7-37c-3-4-109.5-10-236.7-14S719.9,174,640,168
		c-123.3-8-152.8-7-190.3,6c-24.7,8-50.3,15-58.2,15c-6.9,0-14.8,4-16.8,9c-3,9-224.8,41-287,41c-23.7,0-36.5,5-36.5,14
		c0,10,24.7,15,90.7,20c103.5,8,266.2,34,274.1,44c8.9,13,74.9,32,104.5,30C536.6,346,595.7,342,652.9,339z"/>
</g>
</svg>
