<?xml version="1.0" encoding="utf-8"?>
<!-- Generator: Adobe Illustrator 21.0.2, SVG Export Plug-In . SVG Version: 6.00 Build 0)  -->
<svg version="1.1" id="Calque_1" xmlns="http://www.w3.org/2000/svg" xmlns:xlink="http://www.w3.org/1999/xlink" x="0px" y="0px"
	 viewBox="0 0 490 28" style="enable-background:new 0 0 490 28;" xml:space="preserve">
<style type="text/css">
	.st0{fill:url(#SVGID_1_);}
</style>
<g>
	
		<linearGradient id="SVGID_1_" gradientUnits="userSpaceOnUse" x1="15" y1="14.0047" x2="475" y2="14.0047" gradientTransform="matrix(-0.9983 0 0 1 489.5739 0)">
		<stop  offset="0" style="stop-color:#FFFFFF"/>
		<stop  offset="1" style="stop-color:#339933"/>
	</linearGradient>
	<path class="st0" d="M18.395,6.19c-0.599,0.2-0.998,1-0.998,1.8s-0.399,1.4-0.998,1.4c-0.499,0-0.998,0.9-0.998,2s0.499,2,0.998,2
		c0.599,0,0.998,0.8,0.998,1.7c0.1,1,0.898,2.8,1.897,4c1.897,2.2,2.496,2.3,19.965,2.3c11.38,0,18.069-0.4,18.069-1
		s4.193-1,10.482-1c6.289,0,10.482,0.4,10.482,1s8.685,1,23.958,1s23.958-0.4,23.958-1c0-1.6,58.598-1.3,59.097,0.2
		c0.599,1.7,109.31,1.9,110.408,0.2c1.098-1.8,19.766-2.5,68.581-2.4c33.841,0,50.612-0.4,63.889-1.6
		c10.182-0.9,24.158-1.4,32.244-1.2c10.382,0.2,14.175,0,14.175-0.8s-3.095-1.5-8.485-1.9c-4.692-0.4-8.485-1.2-8.485-1.7
		c0-0.7,3.095-0.8,8.585-0.3c6.189,0.5,8.385,0.4,7.986-0.4c-0.399-0.6-3.095-1.1-6.089-1.1c-2.895,0-5.49-0.4-5.69-1
		c-0.2-0.6-31.445-1-84.952-1.2c-73.272-0.3-84.752-0.1-85.551,1.2c-1.298,2.1-92.539,2.1-93.837-0.1
		c-0.799-1.2-9.084-1.4-54.605-1.6c-29.549-0.2-69.579-0.4-88.945-0.5C35.265,5.99,18.894,5.99,18.395,6.19z"/>
</g>
</svg>
