<?xml version="1.0" encoding="utf-8"?>
<!-- Generator: Adobe Illustrator 21.0.2, SVG Export Plug-In . SVG Version: 6.00 Build 0)  -->
<svg version="1.1" id="Calque_1" xmlns="http://www.w3.org/2000/svg" xmlns:xlink="http://www.w3.org/1999/xlink" x="0px" y="0px"
	 viewBox="0 0 369 34" style="enable-background:new 0 0 369 34;" xml:space="preserve">
<style type="text/css">
	.st0{fill:#3C1218;}
</style>
<g transform="translate(0.000000,34.000000) scale(0.100000,-0.100000)">
	<path class="st0" d="M164,243c-43-3-53-8-58-26c-3-12-1-26,4-31s82-11,172-14c90-2,165-8,168-12c11-16,1212-32,2160-28
		c975,3,985,3,985,23c0,48-24,50-565,53c-300,2-507,7-510,13c-4,5-399,11-1006,14c-549,3-1066,7-1149,8C283,245,192,244,164,243z"/>
</g>
</svg>
